<?xml version="1.0" encoding="UTF-8"?>
<svg id="Layer_1" data-name="Layer 1" xmlns="http://www.w3.org/2000/svg" xmlns:xlink="http://www.w3.org/1999/xlink" viewBox="0 0 1168.04 1041">
  <defs>
    <style>
      .cls-1 {
        fill: none;
      }

      .cls-2 {
        fill: #2b2b2b;
      }

      .cls-3 {
        fill: #303031;
      }

      .cls-4 {
        fill: #232323;
      }

      .cls-5 {
        fill: #292929;
      }

      .cls-6 {
        fill: #383839;
      }

      .cls-7 {
        fill: #313132;
      }

      .cls-8 {
        fill: #2c2c2c;
      }

      .cls-9 {
        fill: #212121;
      }

      .cls-10 {
        fill: #373738;
      }

      .cls-11 {
        fill: #323233;
      }

      .cls-12 {
        fill: #272727;
      }

      .cls-13 {
        fill: #363637;
      }

      .cls-14 {
        clip-path: url(#clippath-1);
      }

      .cls-15 {
        clip-path: url(#clippath-3);
      }

      .cls-16 {
        clip-path: url(#clippath-2);
      }

      .cls-17 {
        fill: #343435;
      }

      .cls-18 {
        fill: #2e2e2f;
      }

      .cls-19 {
        fill: #fff;
      }

      .cls-20 {
        fill: #262626;
      }

      .cls-21 {
        fill: #242424;
      }

      .cls-22 {
        fill: #2f2f30;
      }

      .cls-23 {
        opacity: .52;
      }

      .cls-24 {
        fill: #282828;
      }

      .cls-25 {
        fill: #353536;
      }

      .cls-26 {
        fill: #2a2a2a;
      }

      .cls-27 {
        fill: #2d2d2e;
      }

      .cls-28 {
        fill: #252525;
      }

      .cls-29 {
        fill: #2d2d2d;
      }

      .cls-30 {
        fill: #39393a;
      }

      .cls-31 {
        clip-path: url(#clippath);
      }

      .cls-32 {
        fill: #222;
      }

      .cls-33 {
        fill: #333334;
      }
    </style>
    <clipPath id="clippath">
      <path class="cls-1" d="M413.91,483.61h-14.76s-.12,0-.33.02c-.21.02-.45.05-.59.09-.02,0-.05,0-.07.02-.12.02-.31.07-.45.12-.05,0-.07.02-.09.02-.12.05-.19.07-.31.14-.02.02-.07.02-.12.07-.07.02-.14.05-.21.09-.12.05-.24.12-.24.12l-.47.24-.75.35-.64.33-.83.42-2.15,1.06-2.9,1.46-3.07,1.53-2.64,1.32-.21.12-.54.28-.26.14-.17.09-.33.19-.14.09-.17.09-.45.24-.35.21s-1.11.66-1.41.85c-.33.21-1.42.92-1.42.92l-.54.38-.68.47-.42.33-.57.42-.66.5-.66.52-.8.66-.66.54-.24.19-.12.09-.28.24-1.01.9-1.2,1.06-6.25,6.01-.33.33-1.18,1.2-3.89,4.03-.02.05-5.68,6.06-4.29,4.67-5.56,6.11-6.58,7.31s-4.88,5.45-5.54,6.18c-.05.05-.07.07-.07.07-.05.07-4.01,4.48-4.01,4.48l-7.57,8.49-7.38,8.21-.57.61-8.18,8.87-1.16,1.25-.94.99-9.36,9.81-.09.09-.02.02-12.05,12.07-.45.45-.4.38-11.06,10.4-.54.52-2.57,2.31-4.08,3.58-2.15,1.89-1.74,1.46-3.68,3.09-2.29,1.79-.05.05-3.49,2.76-1.27.99-4.08,3.02-1.42,1.04-.24.19-1.16.78-4.36,2.99-4.41,2.81-3.25,1.89-.8.47-.54.28-.97.52-1.72.92-.59.28-1.6.83-.99.45-.68.31-.66.31-2.03.87-1.39.54-.85.33-.17.05v-.02c.28-2.85,17.73-183.89,108.66-173.18,4.29.5,8.37.99,12.29,1.44,2.12.26,4.17.5,6.18.73,5.64.66,10.82,1.27,15.63,1.84,1.72.21,3.4.4,5,.59,2.26.28,4.41.54,6.48.75,1.49.19,2.92.35,4.29.52,10.42,1.23,18.25,2.17,24.12,2.83.73.09,1.42.19,2.07.26,2.59.31,4.76.57,6.56.78.92.09,1.72.19,2.45.28,1.23.14,2.22.26,3.02.35.26.05.52.07.75.09.14.02.26.02.4.05.14.02.26.02.38.05,1.91.21,2.03.24,2.03.24Z"/>
    </clipPath>
    <clipPath id="clippath-1">
      <path class="cls-1" d="M640.79,293.15c-9.44,10.49-22.24,17.36-36.21,19.42l-20.46,3.02h-1.25l-20.48-3.02c-13.97-2.06-26.77-8.93-36.21-19.42l-79.49-88.38c-12.55-13.96-17.92-32.94-14.55-51.4l22.24-121.67,2.55.4,4.91.54,2.36.26,2.07.17c37.94.36,75.89.72,113.83,1.08,40.21-.36,80.43-.72,120.64-1.08l2.05-.17,2.36-.26,4.91-.54,2.55-.4,22.24,121.67c3.37,18.46-2,37.45-14.55,51.4l-79.49,88.39Z"/>
    </clipPath>
    <clipPath id="clippath-2">
      <path class="cls-1" d="M954.47,645.99v.02l-.17-.05-.85-.33-1.39-.54-2.03-.87-.66-.31-.68-.31-.99-.45-1.6-.83-.59-.28-1.72-.92-.97-.52-.54-.28-.8-.47-3.25-1.89-4.41-2.81-4.36-2.99-1.16-.78-.24-.19-1.42-1.04-4.08-3.02-1.27-.99-3.49-2.76-.05-.05-2.29-1.79-3.68-3.09-1.75-1.46-2.15-1.89-4.08-3.58-2.57-2.31-.54-.52-11.06-10.4-.4-.38-.45-.45-12.05-12.07-.12-.12-9.36-9.81-.94-.99-1.16-1.25-8.18-8.87-.57-.61-7.38-8.21-7.57-8.49s-3.96-4.41-4.01-4.48c0,0-.02-.02-.07-.07-.66-.73-5.54-6.18-5.54-6.18l-6.58-7.31-5.56-6.11-4.29-4.67-5.68-6.06-.02-.05-3.89-4.03-1.18-1.2-.33-.33-6.25-6.01-1.2-1.06-1.01-.9-.28-.24-.12-.09-.24-.19-.66-.54-.8-.66-.66-.52-1.23-.92-.42-.33-.68-.47-.54-.38s-1.08-.71-1.42-.92c-.31-.19-1.41-.85-1.41-.85l-.35-.21-.45-.24-.17-.09-.14-.09-.33-.19-.17-.09-.26-.14-.54-.28-.21-.12-2.64-1.32-3.07-1.53-2.9-1.46-2.15-1.06-.83-.42-.64-.33-.75-.35-.47-.24s-.12-.07-.24-.12c-.07-.05-.14-.07-.21-.09-.05-.05-.09-.05-.12-.07-.12-.07-.19-.09-.31-.14-.02,0-.05-.02-.09-.02-.14-.05-.33-.09-.45-.12-.02-.02-.05-.02-.07-.02-.14-.05-.38-.07-.59-.09-.21-.02-.33-.02-.33-.02h-14.76s.12-.02,2.03-.24c.12-.02.24-.02.38-.05.14-.02.26-.02.4-.05.24-.02.47-.05.75-.09.8-.09,1.79-.21,3.02-.35.73-.09,1.53-.19,2.45-.28,1.79-.21,3.96-.47,6.56-.78.66-.07,1.34-.17,2.08-.26,5.87-.66,13.7-1.6,24.12-2.83,1.37-.17,2.81-.33,4.29-.52,2.07-.21,4.22-.47,6.48-.75,1.63-.19,3.28-.38,5-.59,4.81-.57,10-1.18,15.63-1.84,2-.24,4.06-.47,6.18-.73,3.91-.45,7.99-.94,12.29-1.44,91.05-10.73,108.43,170.71,108.66,173.18Z"/>
    </clipPath>
    <clipPath id="clippath-3">
      <path class="cls-1" d="M954.47,645.99v.02l-.17-.05-.85-.33-1.39-.54-2.03-.87-.66-.31-.68-.31-.99-.45-1.6-.83-.59-.28-1.72-.92-.97-.52-.54-.28-.8-.47-3.25-1.89-4.41-2.81-4.36-2.99-1.16-.78-.24-.19-1.42-1.04-4.08-3.02-1.27-.99-3.49-2.76-.05-.05-2.29-1.79-3.68-3.09-1.75-1.46-2.15-1.89-4.08-3.58-2.57-2.31-.54-.52-11.06-10.4-.4-.38-.45-.45-12.05-12.07-.12-.12-9.36-9.81-.94-.99-1.16-1.25-8.18-8.87-.57-.61-7.38-8.21-7.57-8.49s-3.96-4.41-4.01-4.48c0,0-.02-.02-.07-.07-.66-.73-5.54-6.18-5.54-6.18l-6.58-7.31-5.56-6.11-4.29-4.67-5.68-6.06-.02-.05-3.89-4.03-1.18-1.2-.33-.33-6.25-6.01-1.2-1.06-1.01-.9-.28-.24-.12-.09-.24-.19-.66-.54-.8-.66-.66-.52-1.23-.92-.42-.33-.68-.47-.54-.38s-1.08-.71-1.42-.92c-.31-.19-1.41-.85-1.41-.85l-.35-.21-.45-.24-.17-.09-.14-.09-.33-.19-.17-.09-.26-.14-.54-.28-.21-.12-2.64-1.32-3.07-1.53-2.9-1.46-2.15-1.06-.83-.42-.64-.33-.75-.35-.47-.24s-.12-.07-.24-.12c-.07-.05-.14-.07-.21-.09-.05-.05-.09-.05-.12-.07-.12-.07-.19-.09-.31-.14-.02,0-.05-.02-.09-.02-.14-.05-.33-.09-.45-.12-.02-.02-.05-.02-.07-.02-.14-.05-.38-.07-.59-.09-.21-.02-.33-.02-.33-.02h-14.76s.12-.02,2.03-.24c.12-.02.24-.02.38-.05.14-.02.26-.02.4-.05.24-.02.47-.05.75-.09.8-.09,1.79-.21,3.02-.35.73-.09,1.53-.19,2.45-.28,1.79-.21,3.96-.47,6.56-.78.66-.07,1.34-.17,2.08-.26,5.87-.66,13.7-1.6,24.12-2.83,1.37-.17,2.81-.33,4.29-.52,2.07-.21,4.22-.47,6.48-.75,1.63-.19,3.28-.38,5-.59,4.81-.57,10-1.18,15.63-1.84,2-.24,4.06-.47,6.18-.73,3.91-.45,7.99-.94,12.29-1.44,91.05-10.73,108.43,170.71,108.66,173.18Z"/>
    </clipPath>
  </defs>
  <g>
    <path class="cls-9" d="M36.79,787.61l-25.17,25.16c-4.28,4.28-11.62,1.24-11.62-4.81v-25.16c.02-3.76,3.05-6.8,6.82-6.8h25.17c6.06,0,9.1,7.32,4.81,11.61h-.02Z"/>
    <rect class="cls-9" x="96.31" y="871.03" width="122.98" height="40.98"/>
    <path class="cls-9" d="M294.47,871.01v74.96h122.98v-74.96h-122.98ZM294.47,871.01v74.96h122.98v-74.96h-122.98ZM294.47,871.01v74.96h122.98v-74.96h-122.98ZM294.47,871.01v74.96h122.98v-74.96h-122.98ZM294.47,871.01v74.96h122.98v-74.96h-122.98ZM1088.71,849.32c-12.58,0-21.89,10.18-21.89,22.58s9.31,22.58,22.07,22.58,21.55-10,21.55-22.4-9.14-22.76-21.73-22.76ZM1095.42,886.71c-.86-1.03-1.38-3.62-2.25-6.89-.52-3.1-2.24-4.48-5.86-4.48h-3.11v11.37h-6.52v-28.26c2.58-.52,6.2-.86,10.85-.86,5.35,0,7.76.86,9.83,2.07,1.55,1.21,2.76,3.44,2.76,6.2,0,3.1-2.41,5.51-5.87,6.56v.34c2.77,1.03,4.32,3.1,5.17,6.9.86,4.31,1.38,6.02,2.07,7.05h-7.07ZM1088.02,862.24c-1.73,0-2.93.18-3.62.34v8.11h3.1c3.62,0,6.54-1.21,6.54-4.13,0-2.59-1.89-4.32-6.02-4.32ZM1088.71,849.32c-12.58,0-21.89,10.18-21.89,22.58s9.31,22.58,22.07,22.58,21.55-10,21.55-22.4-9.14-22.76-21.73-22.76ZM1095.42,886.71c-.86-1.03-1.38-3.62-2.25-6.89-.52-3.1-2.24-4.48-5.86-4.48h-3.11v11.37h-6.52v-28.26c2.58-.52,6.2-.86,10.85-.86,5.35,0,7.76.86,9.83,2.07,1.55,1.21,2.76,3.44,2.76,6.2,0,3.1-2.41,5.51-5.87,6.56v.34c2.77,1.03,4.32,3.1,5.17,6.9.86,4.31,1.38,6.02,2.07,7.05h-7.07ZM1088.02,862.24c-1.73,0-2.93.18-3.62.34v8.11h3.1c3.62,0,6.54-1.21,6.54-4.13,0-2.59-1.89-4.32-6.02-4.32ZM294.47,871.01v74.96h122.98v-74.96h-122.98ZM1161.23,776H99.04c-1.81,0-3.54.71-4.81,1.99L2.01,870.17c-1.28,1.28-1.99,3.01-1.99,4.82v159.21c0,3.76,3.05,6.8,6.8,6.8h1154.4c3.76,0,6.8-3.05,6.8-6.8v-251.4h.02c0-3.76-3.06-6.8-6.81-6.8ZM246.48,925.6l-13.61,13.6h-20.59l21.21,34.19h-32.14l-21.21-34.19h-83.83v34.19h-27.4v-129.75h163.96l13.61,13.6v68.36ZM444.64,959.79l-13.6,13.6h-150.38l-13.6-13.6v-102.55l13.6-13.6h150.38l13.6,13.6v102.55ZM605.72,973.38l-55.63-63.02-57.46,42.62v20.38h-27.4v-129.72h27.41v75.37l101.96-75.37h45.93l-68.38,50.45,70.03,79.29h-36.46ZM803.25,973.38l-55.62-63.02-57.47,42.62v20.38h-27.4v-129.72h27.42v75.37l101.96-75.37h45.93l-68.39,50.45,70.04,79.29h-36.47ZM965.8,936.51v36.85h-27.4v-36.85l-78.08-92.87h35.65l56.03,66.51,56.03-66.51h35.85l-78.08,92.87ZM1088.71,900.51c-16.38,0-29.14-12.59-29.14-28.61s12.92-28.26,29.14-28.26,28.97,12.58,28.97,28.26-12.59,28.61-28.97,28.61ZM1088.71,849.32c-12.58,0-21.89,10.18-21.89,22.58s9.31,22.58,22.07,22.58,21.55-10,21.55-22.4-9.14-22.76-21.73-22.76ZM1095.42,886.71c-.86-1.03-1.38-3.62-2.25-6.89-.52-3.1-2.24-4.48-5.86-4.48h-3.11v11.37h-6.52v-28.26c2.58-.52,6.2-.86,10.85-.86,5.35,0,7.76.86,9.83,2.07,1.55,1.21,2.76,3.44,2.76,6.2,0,3.1-2.41,5.51-5.87,6.56v.34c2.77,1.03,4.32,3.1,5.17,6.9.86,4.31,1.38,6.02,2.07,7.05h-7.07ZM1088.02,862.24c-1.73,0-2.93.18-3.62.34v8.11h3.1c3.62,0,6.54-1.21,6.54-4.13,0-2.59-1.89-4.32-6.02-4.32ZM294.47,945.97h122.98v-74.96h-122.98v74.96ZM294.47,871.01v74.96h122.98v-74.96h-122.98ZM294.47,871.01v74.96h122.98v-74.96h-122.98ZM294.47,871.01v74.96h122.98v-74.96h-122.98ZM294.47,871.01v74.96h122.98v-74.96h-122.98Z"/>
  </g>
  <g>
    <g>
      <path class="cls-9" d="M411.87,483.37c-.12-.02-.24-.02-.38-.05-.14-.02-.26-.02-.4-.05-.24-.02-.5-.05-.75-.09-.8-.09-1.79-.21-3.02-.35-.73-.09-1.53-.19-2.45-.28-1.79-.21-3.96-.47-6.56-.78-.66-.07-1.34-.17-2.08-.26-5.87-.66-13.7-1.6-24.12-2.83-1.37-.17-2.81-.33-4.29-.52-2.08-.21-4.22-.47-6.48-.75-1.6-.19-3.28-.38-5-.59-4.81-.57-10-1.18-15.63-1.84-2-.24-4.06-.47-6.18-.73-3.91-.45-7.99-.94-12.29-1.44-90.93-10.71-108.38,170.33-108.66,173.18,1.65-.59,3.33-1.27,5.09-2.08l.68-.31c.85-.4,1.72-.83,2.59-1.27.75-.38,1.53-.78,2.31-1.2l.97-.52c.45-.24.9-.5,1.34-.75l3.25-1.89,4.41-2.81,4.36-2.99c.47-.31.92-.64,1.39-.97l1.41-1.04,4.08-3.02,1.27-.99,3.49-2.76.05-.05c1.93-1.53,3.94-3.18,5.97-4.88,1.27-1.08,2.57-2.19,3.89-3.35l4.08-3.58,2.57-2.31.54-.52c3.58-3.25,7.26-6.72,11.06-10.4l.4-.38.45-.45c3.91-3.82,7.92-7.83,12.05-12.07l.02-.02.09-.09c3.07-3.16,6.2-6.41,9.36-9.81l.94-.99,1.16-1.25,8.18-8.87.57-.61,7.38-8.21,7.57-8.49s3.96-4.41,4.01-4.48c0,0,.02-.02.07-.07.66-.73,5.54-6.18,5.54-6.18l6.58-7.31,5.57-6.11,4.29-4.67,5.68-6.06.02-.05,3.89-4.03,1.18-1.2.33-.33c2.33-2.38,4.41-4.34,6.25-6.01l1.2-1.06,1.01-.9.28-.24.12-.09.24-.19.66-.54.8-.66.66-.52.66-.5.57-.42c.38-.28.73-.54,1.11-.8l.54-.38s1.08-.71,1.41-.92c.31-.19,1.42-.85,1.42-.85l.35-.21.45-.24.16-.09.14-.09.33-.19.17-.09.26-.14.54-.28.21-.12,2.64-1.32,3.07-1.53,2.9-1.46,2.15-1.06.83-.42.64-.33.75-.35.47-.24s.12-.07.24-.12c.05-.02.07-.05.12-.07.02-.02.07-.02.09-.02.05-.05.09-.05.12-.07.12-.07.19-.09.31-.14.02,0,.05-.02.09-.02.14-.05.33-.09.45-.12.02-.02.05-.02.07-.02.14-.05.38-.07.59-.09.21-.02.33-.02.33-.02h14.76s-.12-.02-2.03-.24Z"/>
      <path class="cls-19" d="M404.86,482.55c.92.12,1.72.21,2.45.28-.73-.09-1.53-.19-2.45-.28Z"/>
      <path class="cls-9" d="M223.24,71.24c-23.02,32.83-47.59,80.13-67.16,131.37-21.98,57.68-43.32,130.78-56.36,194.45-11.44,55.04-17.21,96.19-17.57,125.22v5.05c.12,11.27,1.13,20.52,3.04,27.9,10.78,41.67,43.72,78.64,80.2,89.96,3.42,1.08,6.39,1.93,9.24,2.55l-12.07-59.64c-11.72-57.94.21-183.39,27.21-285.6,14.29-54.14,35.14-90.27,50.37-116.66,12.47-21.58,21.48-37.19,21.81-52.4.75-33.91-38.32-61.93-38.72-62.21ZM1068.31,397.07c-13.04-63.67-34.38-136.77-56.36-194.45-19.57-51.24-44.14-98.55-67.18-131.37-.4.28-39.48,28.3-38.72,62.21.33,15.21,9.34,30.82,21.81,52.4,15.23,26.39,36.08,62.51,50.37,116.66,27,102.2,38.93,227.66,27.21,285.6l-12.07,59.64c2.88-.61,5.82-1.44,9.27-2.55,36.48-11.32,69.43-48.29,80.2-89.96,1.91-7.38,2.92-16.62,3.04-27.9v-5.05c-.35-29.03-6.13-70.18-17.57-125.22ZM917.15,38.37l-.05-.05s-.12-.09-.21-.17l-.16-.17-.38-.35-.85-.75-.54-.47-.75-.64-.64-.54-.59-.47-.64-.52-.54-.42-.66-.5-.71-.54-.5-.38-.5-.35-.59-.4-1.01-.71-1.32-.85-.9-.52-1.56-.9-1.56-.8-1.6-.78-1.49-.66-1.46-.64-.38-.17c-.52-.21-1.04-.42-1.58-.64l-1.44-.59-.78-.28-.61-.24-.02-.02-2.15-.78-1.89-.68-.66-.24c-.66-.24-1.34-.45-2.05-.68-.8-.28-1.63-.54-2.48-.83l-1.65-.52-1.2-.38-3.02-.92c-.71-.21-1.41-.42-2.15-.64l-1.56-.45-2.05-.59-3.11-.85-1.72-.47-.64-.16-4.55-1.18-.21-.05-4.41-1.08-4.32-1.04-1.41-.33c-2.36-.54-4.76-1.08-7.19-1.6l-.17-.02-3.99-.83-2.95-.61-4.06-.8-.54-.09-4.43-.85-3.4-.61-3.09-.54c-1.08-.19-2.17-.38-3.25-.57l-3.7-.61-4.22-.66-1.84-.28-4.17-.61-2.26-.31h-.02c-1.46-.21-2.88-.4-4.24-.59l-2.1-.28-1.7-.24-2.5-.33-2.29-.28-.33-.05-2.24-.26-2.07-.24s-.5-.05-2.03-.19c-.19-.02-.38-.05-.59-.05-.35-.05-.71-.07-1.06-.09-.07,0-.14-.02-.19-.02-.5-.05-.97-.07-1.39-.12-.38-.02-.71-.02-.97-.05-.31-.02-.87-.05-1.56-.09-.38-.02-.83-.02-1.25-.05-.28,0-.59-.02-.9-.02-.87-.02-1.7-.05-2.22-.05-.47,0-.99,0-1.56.02-.59.02-1.2.05-1.79.07-.45.05-.9.07-1.3.09-.07,0-.14,0-.24.02-.66.05-1.49.17-2.26.26-.45.07-.85.12-1.18.19-.26.05-.52.09-.78.14h-.05c-.52.12-1.08.24-1.82.42-.24.07-.5.14-.8.21-.52.17-1.04.31-1.56.5-.57.19-1.11.42-1.72.66-.47.17-1.01.42-1.58.68-.35.19-.68.35-1.01.52-.5.26-.97.52-1.32.71-.68.38-1.2.71-1.82,1.08t-.05.05l-1.2.78c-.19.12-.33.21-.5.33-.31.21-.59.42-.94.68-.19.14-.47.33-.8.59-.68.52-1.56,1.2-2.26,1.75-.33.28-.64.52-.85.68-.85.68-2.29,1.91-2.29,1.91l-2.83,2.45-.54.47-.85.75c-.05.07-.12.12-.17.17-.17.14-.47.4-.85.78-.26.24-.52.47-.78.68-.75.71-1.7,1.56-2.62,2.41-1.08.99-2.19,1.98-3.02,2.71-.16.14-.31.28-.45.4-.57.52-1.13.97-1.67,1.39-.47.38-.9.68-1.32.99-.99.68-1.86,1.23-2.52,1.63-.47.28-1.13.66-1.91,1.01-.26.14-.54.26-.83.38-1.11.5-2.43,1.01-3.73,1.37-1.72.5-2.62.73-3.75.97-.14.02-.28.05-.42.09-.31.07-.61.12-.94.19-.17.02-.35.05-.54.09-.02.02-.05.02-.07.02-.31.07-.68.12-1.13.19-.45.07-.94.14-1.51.21-2.17.31-4.58.59-7.26.8-1.23.09-2.29.19-3.07.24-.38.02-.94.07-1.63.09-.21.02-.45.02-.68.05-.14,0-.28,0-.45.02-1.18.07-2.41.14-3.7.21h-.61c-1.93.07-3.99.14-6.15.21-.59,0-1.16.02-1.67.05-.4,0-.75.02-1.09.02-.64.02-1.16.05-1.46.05-.42,0-.85.02-1.3.02l-1.34.02-3.21.07-4.88.07h-.92c-1.51,0-3.07.02-4.67.05l-4.95.02-9.1.05-26.06.02h-16.84l-19.88-.02h-12.29l-19.53.02h-16.84l-26.06-.02-9.1-.05-4.95-.02c-1.6-.02-3.16-.05-4.67-.05h-.92l-4.88-.07-3.21-.07-1.34-.02c-.45,0-.87-.02-1.3-.02-.31,0-.83-.02-1.46-.05-.33,0-.68-.02-1.08-.02-.52-.02-1.08-.05-1.67-.05-1.93-.07-3.77-.12-5.52-.19-.09-.02-.17-.02-.26-.02-1.65-.05-3.21-.12-4.69-.21-.17-.02-.31-.02-.45-.02-.24-.02-.47-.02-.68-.05-.68-.02-1.25-.07-1.63-.09-.78-.05-1.84-.14-3.07-.24-2.69-.21-5.09-.5-7.26-.8-.57-.07-1.06-.14-1.51-.21-.45-.07-.83-.12-1.13-.19-.02,0-.05,0-.07-.02-.19-.05-.38-.07-.54-.09-.33-.07-.64-.12-.94-.19-.14-.05-.28-.07-.42-.09-1.13-.24-2.03-.47-3.75-.97-1.3-.35-2.62-.87-3.73-1.37-.28-.12-.57-.24-.83-.38-.78-.35-1.44-.73-1.91-1.01-.66-.4-1.53-.94-2.52-1.63-.42-.31-.85-.61-1.32-.99-.54-.42-1.11-.87-1.67-1.39-.14-.12-.28-.26-.45-.4-.83-.73-1.93-1.72-3.02-2.71-.92-.85-1.86-1.7-2.62-2.41-.26-.21-.52-.45-.78-.68-.38-.38-.68-.64-.85-.78-.05-.05-.12-.09-.17-.17l-.85-.75-.54-.47-2.83-2.45s-1.44-1.23-2.29-1.91c-.21-.17-.52-.4-.85-.68-.71-.54-1.58-1.23-2.26-1.75-.33-.26-.61-.45-.8-.59-.35-.26-.64-.47-.94-.68-.17-.12-.31-.21-.5-.33l-1.2-.78-.05-.05c-.61-.38-1.13-.71-1.82-1.08-.35-.19-.83-.45-1.32-.71-.33-.17-.66-.33-1.01-.52-.57-.26-1.11-.52-1.58-.68-.61-.24-1.16-.47-1.72-.66-.52-.19-1.04-.33-1.56-.5-.31-.07-.57-.14-.8-.21-.73-.19-1.3-.31-1.82-.42h-.05c-.26-.05-.52-.09-.78-.14-.33-.07-.73-.12-1.18-.19-.78-.09-1.6-.21-2.26-.26-.09-.02-.17-.02-.24-.02-.4-.02-.85-.05-1.3-.09-.59-.02-1.2-.05-1.79-.07-.57-.02-1.08-.02-1.56-.02-.52,0-1.34.02-2.22.05-.31,0-.61.02-.9.02-.42.02-.87.02-1.25.05-.68.05-1.25.07-1.56.09-.26.02-.59.02-.97.05-.42.05-.9.07-1.39.12-.05,0-.12.02-.19.02-.35.02-.71.05-1.06.09-.21,0-.4.02-.59.05-1.53.14-2.03.19-2.03.19l-2.07.24-2.24.26-.33.05-2.29.28-2.5.33-1.7.24-2.1.28c-1.37.19-2.78.38-4.24.59h-.02l-2.26.31-4.17.61-1.84.28-4.22.66-3.7.61c-1.08.19-2.17.38-3.25.57l-3.09.54-3.4.61-4.43.85-.54.09-4.06.8-2.95.61-3.99.83-.17.02c-2.43.52-4.83,1.06-7.19,1.6l-1.41.33-4.32,1.04-4.41,1.08-.21.05-4.55,1.18-.64.16-1.72.47-3.11.85-2.05.59-1.56.45c-.73.21-1.44.42-2.15.64l-3.02.92-1.2.38-1.65.52c-.85.28-1.67.54-2.48.83-.71.24-1.39.45-2.05.68l-.66.24-1.89.68-2.15.78-.02.02-.61.24-.78.28-1.44.59c-.54.21-1.06.42-1.58.64l-.38.17-1.46.64-1.49.66-1.6.78-1.56.8-1.56.9-.9.52-1.32.85-1.01.71-.59.4-.5.35-.5.38-.71.54-.66.5-.54.42-.64.52-.59.47-.64.54-.75.64-.54.47-.85.75-.38.35-.16.17c-.09.07-.17.12-.21.17l-.05.05c-8.23,7.52-17.12,18.06-26.27,30.96,1.65,1.16,40.49,28.98,39.71,64.17-.35,15.82-9.48,31.65-22.12,53.53-15.16,26.27-35.94,62.26-50.16,116.09-26.91,101.9-38.84,226.88-27.17,284.54,4.2,20.21,8.4,40.42,12.62,60.6,6.23,1.04,12.66,1.08,23.32.57,3.87-.19,8.14-1.13,12.76-2.81v-.02c.28-2.85,17.73-183.89,108.66-173.18,4.29.5,8.37.99,12.29,1.44,2.12.26,4.17.5,6.18.73,5.64.66,10.82,1.27,15.63,1.84,1.72.21,3.4.4,5,.59,2.26.28,4.41.54,6.48.75,1.49.19,2.92.35,4.29.52,10.42,1.23,18.25,2.17,24.12,2.83.73.09,1.42.19,2.08.26,2.59.31,4.76.57,6.56.78.92.09,1.72.19,2.45.28,1.23.14,2.22.26,3.02.35.26.05.52.07.75.09.14.02.26.02.4.05.14.02.26.02.38.05,1.91.21,2.03.24,2.03.24h340.23s.12-.02,2.03-.24c.12-.02.24-.02.38-.05.14-.02.26-.02.4-.05.24-.02.47-.05.75-.09.8-.09,1.79-.21,3.02-.35.73-.09,1.53-.19,2.45-.28,1.79-.21,3.96-.47,6.56-.78.66-.07,1.34-.17,2.07-.26,5.87-.66,13.7-1.6,24.12-2.83,1.37-.17,2.81-.33,4.29-.52,2.08-.21,4.22-.47,6.48-.75,1.63-.19,3.28-.38,5-.59,4.81-.57,10-1.18,15.63-1.84,2-.24,4.06-.47,6.18-.73,3.91-.45,7.99-.94,12.29-1.44,91.05-10.73,108.43,170.71,108.66,173.18v.02c4.62,1.67,8.89,2.62,12.76,2.81,10.59.52,17.03.47,23.23-.54,4.22-20.21,8.47-40.42,12.69-60.63,11.67-57.66-.26-182.64-27.17-284.54-14.22-53.84-35-89.82-50.16-116.09-12.64-21.88-21.77-37.71-22.12-53.53-.78-35.18,38.06-63.01,39.71-64.17l1.37,1.91c-9.62-13.77-18.98-24.97-27.61-32.87ZM531.57,313.73c-4.98,2.78-21.77,12.38-37.31,21.58l-26.81,16.18c-.78.47-1.63.71-2.52.71h-49.4c-56.17,0-65.51-1.51-82.7-12.83-27.57-18.16-41.03-48.51-52.63-117.11-1.25-7.05-1.25-7.26,5.59-5.57,3.51.66,28.6,8.98,55.32,18.39h.02c55.11,19.22,168.89,60.91,187.33,68.6l2.85,1.23c3.8,1.63,3.96,6.96.26,8.82ZM887.84,222.26c-11.6,68.6-25.07,98.95-52.63,117.11-17.19,11.32-26.53,12.83-82.7,12.83h-49.4c-.9,0-1.75-.24-2.52-.71l-26.81-16.18c-15.54-9.2-32.33-18.79-37.31-21.58-3.7-1.86-3.54-7.19.26-8.82l2.85-1.23c18.44-7.69,132.22-49.38,187.33-68.6h.02c26.72-9.41,51.81-17.73,55.32-18.39,6.84-1.7,6.84-1.49,5.59,5.57Z"/>
      <path class="cls-19" d="M760.71,482.83c.73-.07,1.53-.17,2.45-.28-.92.09-1.72.19-2.45.28Z"/>
      <g class="cls-31">
        <rect class="cls-30" x="213.58" y="462.1" width="8.01" height="183.91"/>
        <rect class="cls-6" x="221.59" y="462.1" width="8.01" height="183.91"/>
        <rect class="cls-10" x="229.61" y="462.1" width="8.01" height="183.91"/>
        <rect class="cls-13" x="237.62" y="462.1" width="8.01" height="183.91"/>
        <rect class="cls-25" x="245.63" y="462.1" width="8.01" height="183.91"/>
        <rect class="cls-17" x="253.65" y="462.1" width="8.01" height="183.91"/>
        <rect class="cls-33" x="261.66" y="462.1" width="8.01" height="183.91"/>
        <rect class="cls-11" x="269.67" y="462.1" width="8.01" height="183.91"/>
        <rect class="cls-7" x="277.68" y="462.1" width="8.01" height="183.91"/>
        <rect class="cls-3" x="285.7" y="462.1" width="8.01" height="183.91"/>
        <rect class="cls-22" x="293.71" y="462.1" width="8.01" height="183.91"/>
        <rect class="cls-18" x="301.72" y="462.1" width="8.01" height="183.91"/>
        <rect class="cls-27" x="309.74" y="462.1" width="8.01" height="183.91"/>
        <rect class="cls-8" x="317.75" y="462.1" width="8.01" height="183.91"/>
        <rect class="cls-2" x="325.76" y="462.1" width="8.01" height="183.91"/>
        <rect class="cls-26" x="333.78" y="462.1" width="8.01" height="183.91"/>
        <rect class="cls-5" x="341.79" y="462.1" width="8.01" height="183.91"/>
        <rect class="cls-24" x="349.8" y="462.1" width="8.01" height="183.91"/>
        <rect class="cls-12" x="357.81" y="462.1" width="8.01" height="183.91"/>
        <rect class="cls-20" x="365.83" y="462.1" width="8.01" height="183.91"/>
        <rect class="cls-28" x="373.84" y="462.1" width="8.01" height="183.91"/>
        <rect class="cls-21" x="381.85" y="462.1" width="8.01" height="183.91"/>
        <rect class="cls-4" x="389.87" y="462.1" width="8.01" height="183.91"/>
        <rect class="cls-32" x="397.88" y="462.1" width="8.01" height="183.91"/>
        <rect class="cls-9" x="405.89" y="462.1" width="8.01" height="183.91"/>
      </g>
      <path class="cls-9" d="M845.79,472.81c-4.29.5-8.37.99-12.29,1.44-2.12.26-4.17.5-6.18.73-5.64.66-10.82,1.27-15.63,1.84-1.72.21-3.37.4-5,.59-2.26.28-4.41.54-6.48.75-1.49.19-2.92.35-4.29.52-10.42,1.23-18.25,2.17-24.12,2.83-.73.09-1.41.19-2.07.26-2.59.31-4.76.57-6.56.78-.92.09-1.72.19-2.45.28-1.23.14-2.22.26-3.02.35-.28.05-.52.07-.75.09-.14.02-.26.02-.4.05-.14.02-.26.02-.38.05-1.91.21-2.03.24-2.03.24h14.76s.12,0,.33.02c.21.02.45.05.59.09.02,0,.05,0,.07.02.12.02.31.07.45.12.05,0,.07.02.09.02.12.05.19.07.31.14.02.02.07.02.12.07.02,0,.07,0,.09.02.05.02.07.05.12.07.12.05.24.12.24.12l.47.24.75.35.64.33.83.42,2.15,1.06,2.9,1.46,3.07,1.53,2.64,1.32.21.12.54.28.26.14.16.09.33.19.14.09.16.09.45.24.35.21s1.11.66,1.41.85c.33.21,1.42.92,1.42.92l.54.38c.38.26.73.52,1.11.8l1.23.92.66.52.8.66.66.54.24.19.12.09.28.24,1.01.9,1.2,1.06c1.84,1.67,3.91,3.63,6.25,6.01l.33.33,1.18,1.2,3.89,4.03.02.05,5.68,6.06,4.29,4.67,5.57,6.11,6.58,7.31s4.88,5.45,5.54,6.18c.05.05.07.07.07.07.05.07,4.01,4.48,4.01,4.48l7.57,8.49,7.38,8.21.57.61,8.18,8.87,1.16,1.25.94.99c3.16,3.4,6.3,6.65,9.36,9.81l.12.12c4.13,4.24,8.14,8.25,12.05,12.07l.45.45.4.38c3.8,3.68,7.48,7.15,11.06,10.4l.54.52,2.57,2.31,4.08,3.58c1.32,1.16,2.62,2.26,3.89,3.35,2.03,1.7,4.03,3.35,5.97,4.88l.05.05,3.49,2.76,1.27.99,4.08,3.02,1.41,1.04c.47.33.92.66,1.39.97l4.36,2.99,4.41,2.81,3.25,1.89c.45.26.9.52,1.34.75l.97.52c.78.42,1.56.83,2.31,1.2.87.45,1.75.87,2.59,1.27l.68.31c1.77.8,3.44,1.49,5.09,2.08-.24-2.48-17.62-183.91-108.66-173.18Z"/>
      <g class="cls-23">
        <g class="cls-14">
          <rect class="cls-30" x="428.76" y="31.69" width="309.45" height="11.36"/>
          <rect class="cls-6" x="428.76" y="43.04" width="309.45" height="11.36"/>
          <rect class="cls-10" x="428.76" y="54.4" width="309.45" height="11.36"/>
          <rect class="cls-13" x="428.76" y="65.75" width="309.45" height="11.36"/>
          <rect class="cls-25" x="428.76" y="77.11" width="309.45" height="11.36"/>
          <rect class="cls-17" x="428.76" y="88.47" width="309.45" height="11.36"/>
          <rect class="cls-33" x="428.76" y="99.82" width="309.45" height="11.36"/>
          <rect class="cls-11" x="428.76" y="111.18" width="309.45" height="11.36"/>
          <rect class="cls-7" x="428.76" y="122.53" width="309.45" height="11.36"/>
          <rect class="cls-3" x="428.76" y="133.89" width="309.45" height="11.36"/>
          <rect class="cls-22" x="428.76" y="145.25" width="309.45" height="11.36"/>
          <rect class="cls-18" x="428.76" y="156.6" width="309.45" height="11.36"/>
          <rect class="cls-27" x="428.76" y="167.96" width="309.45" height="11.36"/>
          <rect class="cls-8" x="428.76" y="179.31" width="309.45" height="11.36"/>
          <rect class="cls-2" x="428.76" y="190.67" width="309.45" height="11.36"/>
          <rect class="cls-26" x="428.76" y="202.03" width="309.45" height="11.36"/>
          <rect class="cls-5" x="428.76" y="213.38" width="309.45" height="11.36"/>
          <rect class="cls-24" x="428.76" y="224.74" width="309.45" height="11.36"/>
          <rect class="cls-12" x="428.76" y="236.09" width="309.45" height="11.36"/>
          <rect class="cls-20" x="428.76" y="247.45" width="309.45" height="11.36"/>
          <rect class="cls-28" x="428.76" y="258.81" width="309.45" height="11.36"/>
          <rect class="cls-21" x="428.76" y="270.16" width="309.45" height="11.36"/>
          <rect class="cls-4" x="428.76" y="281.52" width="309.45" height="11.36"/>
          <rect class="cls-32" x="428.76" y="292.87" width="309.45" height="11.36"/>
          <rect class="cls-9" x="428.76" y="304.23" width="309.45" height="11.36"/>
        </g>
      </g>
      <g class="cls-16">
        <rect class="cls-30" x="754.14" y="462.08" width="8.01" height="183.94"/>
        <rect class="cls-6" x="762.15" y="462.08" width="8.01" height="183.94"/>
        <rect class="cls-10" x="770.17" y="462.08" width="8.01" height="183.94"/>
        <rect class="cls-13" x="778.18" y="462.08" width="8.01" height="183.94"/>
        <rect class="cls-25" x="786.19" y="462.08" width="8.01" height="183.94"/>
        <rect class="cls-17" x="794.2" y="462.08" width="8.01" height="183.94"/>
        <rect class="cls-33" x="802.22" y="462.08" width="8.01" height="183.94"/>
        <rect class="cls-11" x="810.23" y="462.08" width="8.01" height="183.94"/>
        <rect class="cls-7" x="818.24" y="462.08" width="8.01" height="183.94"/>
        <rect class="cls-3" x="826.26" y="462.08" width="8.01" height="183.94"/>
        <rect class="cls-22" x="834.27" y="462.08" width="8.01" height="183.94"/>
        <rect class="cls-18" x="842.28" y="462.08" width="8.01" height="183.94"/>
        <rect class="cls-27" x="850.3" y="462.08" width="8.01" height="183.94"/>
        <rect class="cls-8" x="858.31" y="462.08" width="8.01" height="183.94"/>
        <rect class="cls-2" x="866.32" y="462.08" width="8.01" height="183.94"/>
        <rect class="cls-26" x="874.34" y="462.08" width="8.01" height="183.94"/>
        <rect class="cls-5" x="882.35" y="462.08" width="8.01" height="183.94"/>
        <rect class="cls-24" x="890.36" y="462.08" width="8.01" height="183.94"/>
        <rect class="cls-12" x="898.37" y="462.08" width="8.01" height="183.94"/>
        <rect class="cls-20" x="906.39" y="462.08" width="8.01" height="183.94"/>
        <rect class="cls-28" x="914.4" y="462.08" width="8.01" height="183.94"/>
        <rect class="cls-21" x="922.41" y="462.08" width="8.01" height="183.94"/>
        <rect class="cls-4" x="930.43" y="462.08" width="8.01" height="183.94"/>
        <rect class="cls-32" x="938.44" y="462.08" width="8.01" height="183.94"/>
        <rect class="cls-9" x="946.45" y="462.08" width="8.01" height="183.94"/>
      </g>
    </g>
    <path class="cls-29" d="M1068.31,397.08c-13.04-63.67-34.38-136.77-56.36-194.45-19.57-51.24-44.14-98.55-67.18-131.37-.4.28-39.47,28.3-38.72,62.21.33,15.21,9.34,30.82,21.81,52.4,15.23,26.39,36.08,62.51,50.37,116.66,27,102.2,38.93,227.66,27.21,285.6l-12.07,59.64c2.88-.61,5.83-1.44,9.27-2.55,36.48-11.32,69.42-48.3,80.2-89.96,1.91-7.38,2.92-16.62,3.04-27.9v-5.05c-.35-29.03-6.13-70.18-17.57-125.22ZM223.25,71.25c-23.02,32.83-47.59,80.13-67.16,131.37-21.98,57.68-43.32,130.78-56.36,194.45-11.44,55.04-17.21,96.19-17.57,125.22v5.05c.12,11.27,1.13,20.52,3.04,27.9,10.78,41.67,43.72,78.64,80.2,89.96,3.42,1.08,6.39,1.93,9.24,2.55l-12.07-59.64c-11.72-57.94.21-183.39,27.21-285.6,14.29-54.14,35.14-90.27,50.37-116.66,12.47-21.58,21.48-37.19,21.81-52.4.75-33.91-38.32-61.93-38.72-62.21Z"/>
    <path class="cls-19" d="M760.72,482.84c.73-.07,1.53-.17,2.45-.28-.92.09-1.72.19-2.45.28Z"/>
    <path class="cls-19" d="M760.72,482.84c.73-.07,1.53-.17,2.45-.28-.92.09-1.72.19-2.45.28Z"/>
    <g class="cls-15">
      <rect class="cls-30" x="754.14" y="462.08" width="8.01" height="183.94"/>
      <rect class="cls-6" x="762.15" y="462.08" width="8.01" height="183.94"/>
      <rect class="cls-10" x="770.17" y="462.08" width="8.01" height="183.94"/>
      <rect class="cls-13" x="778.18" y="462.08" width="8.01" height="183.94"/>
      <rect class="cls-25" x="786.19" y="462.08" width="8.01" height="183.94"/>
      <rect class="cls-17" x="794.2" y="462.08" width="8.01" height="183.94"/>
      <rect class="cls-33" x="802.22" y="462.08" width="8.01" height="183.94"/>
      <rect class="cls-11" x="810.23" y="462.08" width="8.01" height="183.94"/>
      <rect class="cls-7" x="818.24" y="462.08" width="8.01" height="183.94"/>
      <rect class="cls-3" x="826.26" y="462.08" width="8.01" height="183.94"/>
      <rect class="cls-22" x="834.27" y="462.08" width="8.01" height="183.94"/>
      <rect class="cls-18" x="842.28" y="462.08" width="8.01" height="183.94"/>
      <rect class="cls-27" x="850.3" y="462.08" width="8.01" height="183.94"/>
      <rect class="cls-8" x="858.31" y="462.08" width="8.01" height="183.94"/>
      <rect class="cls-2" x="866.32" y="462.08" width="8.01" height="183.94"/>
      <rect class="cls-26" x="874.34" y="462.08" width="8.01" height="183.94"/>
      <rect class="cls-5" x="882.35" y="462.08" width="8.01" height="183.94"/>
      <rect class="cls-24" x="890.36" y="462.08" width="8.01" height="183.94"/>
      <rect class="cls-12" x="898.37" y="462.08" width="8.01" height="183.94"/>
      <rect class="cls-20" x="906.39" y="462.08" width="8.01" height="183.94"/>
      <rect class="cls-28" x="914.4" y="462.08" width="8.01" height="183.94"/>
      <rect class="cls-21" x="922.41" y="462.08" width="8.01" height="183.94"/>
      <rect class="cls-4" x="930.43" y="462.08" width="8.01" height="183.94"/>
      <rect class="cls-32" x="938.44" y="462.08" width="8.01" height="183.94"/>
      <rect class="cls-9" x="946.45" y="462.08" width="8.01" height="183.94"/>
    </g>
  </g>
</svg>